<?xml version="1.0" encoding="UTF-8" standalone="no"?>
<!DOCTYPE svg PUBLIC "-//W3C//DTD SVG 1.1//EN"
 "http://www.w3.org/Graphics/SVG/1.1/DTD/svg11.dtd">
<!-- Generated by graphviz version 2.47.1 (20210417.1919)
 -->
<!-- Title: dependency&#45;cruiser output Pages: 1 -->
<svg width="485pt" height="178pt"
 viewBox="0.00 0.00 485.00 178.00" xmlns="http://www.w3.org/2000/svg" xmlns:xlink="http://www.w3.org/1999/xlink">
<g id="graph0" class="graph" transform="scale(1 1) rotate(0) translate(4 174)">
<title>dependency&#45;cruiser output</title>
<polygon fill="white" stroke="transparent" points="-4,4 -4,-174 481,-174 481,4 -4,4"/>
<g id="clust1" class="cluster">
<title>cluster_src</title>
<path fill="#ffffff" stroke="black" stroke-width="2" d="M20,-8C20,-8 457,-8 457,-8 463,-8 469,-14 469,-20 469,-20 469,-150 469,-150 469,-156 463,-162 457,-162 457,-162 20,-162 20,-162 14,-162 8,-156 8,-150 8,-150 8,-20 8,-20 8,-14 14,-8 20,-8"/>
<text text-anchor="middle" x="238.5" y="-150.8" font-family="Helvetica,sans-Serif" font-weight="bold" font-size="9.00">src</text>
</g>
<!-- src/action_manager.ts -->
<g id="node1" class="node">
<title>src/action_manager.ts</title>
<g id="a_node1"><a xlink:href="src/action_manager.ts" xlink:title="action_manager.ts">
<path fill="#ddfeff" stroke="black" d="M204.5,-106C204.5,-106 124.5,-106 124.5,-106 121.5,-106 118.5,-103 118.5,-100 118.5,-100 118.5,-94 118.5,-94 118.5,-91 121.5,-88 124.5,-88 124.5,-88 204.5,-88 204.5,-88 207.5,-88 210.5,-91 210.5,-94 210.5,-94 210.5,-100 210.5,-100 210.5,-103 207.5,-106 204.5,-106"/>
<text text-anchor="middle" x="164.5" y="-94.8" font-family="Helvetica,sans-Serif" font-size="9.00">action_manager.ts</text>
</a>
</g>
</g>
<!-- src/location_manager.ts -->
<g id="node2" class="node">
<title>src/location_manager.ts</title>
<g id="a_node2"><a xlink:href="src/location_manager.ts" xlink:title="location_manager.ts">
<path fill="#ddfeff" stroke="black" d="M321,-92C321,-92 233,-92 233,-92 230,-92 227,-89 227,-86 227,-86 227,-80 227,-80 227,-77 230,-74 233,-74 233,-74 321,-74 321,-74 324,-74 327,-77 327,-80 327,-80 327,-86 327,-86 327,-89 324,-92 321,-92"/>
<text text-anchor="middle" x="277" y="-80.8" font-family="Helvetica,sans-Serif" font-size="9.00">location_manager.ts</text>
</a>
</g>
</g>
<!-- src/action_manager.ts&#45;&gt;src/location_manager.ts -->
<g id="edge1" class="edge">
<title>src/action_manager.ts&#45;&gt;src/location_manager.ts</title>
<path fill="none" stroke="#000000" stroke-width="2" stroke-opacity="0.200000" d="M210.76,-91.27C211.42,-91.18 212.08,-91.1 212.74,-91.02"/>
<polygon fill="#000000" fill-opacity="0.200000" stroke="#000000" stroke-width="2" stroke-opacity="0.200000" points="220.98,-92.09 226.67,-89.25 220.46,-87.92 220.98,-92.09"/>
<polyline fill="none" stroke="#000000" stroke-width="2" stroke-opacity="0.200000" points="220.72,-90 217.74,-90.38 "/>
<ellipse fill="none" stroke="#000000" stroke-width="2" stroke-opacity="0.200000" cx="215.36" cy="-90.68" rx="2.4" ry="2.4"/>
</g>
<!-- src/types.ts -->
<g id="node3" class="node">
<title>src/types.ts</title>
<g id="a_node3"><a xlink:href="src/types.ts" xlink:title="types.ts">
<path fill="#ddfeff" stroke="black" d="M455,-92C455,-92 413,-92 413,-92 410,-92 407,-89 407,-86 407,-86 407,-80 407,-80 407,-77 410,-74 413,-74 413,-74 455,-74 455,-74 458,-74 461,-77 461,-80 461,-80 461,-86 461,-86 461,-89 458,-92 455,-92"/>
<text text-anchor="middle" x="434" y="-80.8" font-family="Helvetica,sans-Serif" font-size="9.00">types.ts</text>
</a>
</g>
</g>
<!-- src/action_manager.ts&#45;&gt;src/types.ts -->
<g id="edge2" class="edge">
<title>src/action_manager.ts&#45;&gt;src/types.ts</title>
<path fill="none" stroke="#000000" stroke-width="2" stroke-opacity="0.200000" d="M210.79,-102.74C216.25,-103.26 221.74,-103.7 227,-104 301.15,-108.21 321.66,-114.8 394,-98 398.28,-97.01 402.71,-95.65 406.98,-94.15"/>
<polygon fill="#000000" fill-opacity="0.200000" stroke="#000000" stroke-width="2" stroke-opacity="0.200000" points="407.79,-96.09 412.69,-92.03 406.33,-92.15 407.79,-96.09"/>
</g>
<!-- src/utilities.ts -->
<g id="node4" class="node">
<title>src/utilities.ts</title>
<g id="a_node4"><a xlink:href="src/utilities.ts" xlink:title="utilities.ts">
<path fill="#ddfeff" stroke="black" d="M455,-122C455,-122 413,-122 413,-122 410,-122 407,-119 407,-116 407,-116 407,-110 407,-110 407,-107 410,-104 413,-104 413,-104 455,-104 455,-104 458,-104 461,-107 461,-110 461,-110 461,-116 461,-116 461,-119 458,-122 455,-122"/>
<text text-anchor="middle" x="434" y="-110.8" font-family="Helvetica,sans-Serif" font-size="9.00">utilities.ts</text>
</a>
</g>
</g>
<!-- src/action_manager.ts&#45;&gt;src/utilities.ts -->
<g id="edge3" class="edge">
<title>src/action_manager.ts&#45;&gt;src/utilities.ts</title>
<path fill="none" stroke="#000000" stroke-width="2" stroke-opacity="0.200000" d="M202.39,-106.01C210.45,-107.64 218.97,-109.1 227,-110 288.2,-116.85 360.25,-115.84 400.88,-114.45"/>
<polygon fill="#000000" fill-opacity="0.200000" stroke="#000000" stroke-width="2" stroke-opacity="0.200000" points="400.96,-116.55 406.88,-114.23 400.81,-112.35 400.96,-116.55"/>
</g>
<!-- src/location_manager.ts&#45;&gt;src/utilities.ts -->
<g id="edge11" class="edge">
<title>src/location_manager.ts&#45;&gt;src/utilities.ts</title>
<path fill="none" stroke="#000000" stroke-width="2" stroke-opacity="0.200000" d="M313.3,-92.04C322,-94.13 331.31,-96.25 340,-98 359.99,-102.02 382.57,-105.69 400.47,-108.39"/>
<polygon fill="#000000" fill-opacity="0.200000" stroke="#000000" stroke-width="2" stroke-opacity="0.200000" points="400.6,-110.53 406.85,-109.33 401.22,-106.37 400.6,-110.53"/>
</g>
<!-- src/agent.ts -->
<g id="node5" class="node">
<title>src/agent.ts</title>
<g id="a_node5"><a xlink:href="src/agent.ts" xlink:title="agent.ts">
<path fill="#ddfeff" stroke="black" d="M388,-92C388,-92 346,-92 346,-92 343,-92 340,-89 340,-86 340,-86 340,-80 340,-80 340,-77 343,-74 346,-74 346,-74 388,-74 388,-74 391,-74 394,-77 394,-80 394,-80 394,-86 394,-86 394,-89 391,-92 388,-92"/>
<text text-anchor="middle" x="367" y="-80.8" font-family="Helvetica,sans-Serif" font-size="9.00">agent.ts</text>
</a>
</g>
</g>
<!-- src/location_manager.ts&#45;&gt;src/agent.ts -->
<g id="edge10" class="edge">
<title>src/location_manager.ts&#45;&gt;src/agent.ts</title>
<path fill="none" stroke="#000000" stroke-width="2" stroke-opacity="0.200000" d="M327.15,-78.53C327.28,-78.53 327.42,-78.53 327.56,-78.53"/>
<polygon fill="#000000" fill-opacity="0.200000" stroke="#000000" stroke-width="2" stroke-opacity="0.200000" points="333.93,-80.8 339.98,-78.85 334.04,-76.6 333.93,-80.8"/>
<polyline fill="none" stroke="#000000" stroke-width="2" stroke-opacity="0.200000" points="333.99,-78.7 330.99,-78.62 "/>
<ellipse fill="none" stroke="#000000" stroke-width="2" stroke-opacity="0.200000" cx="328.59" cy="-78.56" rx="2.4" ry="2.4"/>
</g>
<!-- src/agent.ts&#45;&gt;src/action_manager.ts -->
<g id="edge4" class="edge">
<title>src/agent.ts&#45;&gt;src/action_manager.ts</title>
<path fill="none" stroke="#000000" stroke-width="2" stroke-opacity="0.200000" d="M346.57,-92.08C340.44,-94.5 333.56,-96.78 327,-98 293.56,-104.21 255.56,-104.31 224.82,-102.7"/>
<polygon fill="#000000" fill-opacity="0.200000" stroke="#000000" stroke-width="2" stroke-opacity="0.200000" points="216.93,-100.1 210.81,-101.82 216.66,-104.29 216.93,-100.1"/>
<polyline fill="none" stroke="#000000" stroke-width="2" stroke-opacity="0.200000" points="216.79,-102.19 219.79,-102.38 "/>
<ellipse fill="none" stroke="#000000" stroke-width="2" stroke-opacity="0.200000" cx="222.18" cy="-102.53" rx="2.4" ry="2.4"/>
</g>
<!-- src/agent.ts&#45;&gt;src/location_manager.ts -->
<g id="edge5" class="edge">
<title>src/agent.ts&#45;&gt;src/location_manager.ts</title>
<path fill="none" stroke="#000000" stroke-width="2" stroke-opacity="0.200000" d="M339.98,-87.15C339.86,-87.15 339.73,-87.16 339.6,-87.16"/>
<polygon fill="#000000" fill-opacity="0.200000" stroke="#000000" stroke-width="2" stroke-opacity="0.200000" points="333.09,-85.22 327.15,-87.47 333.2,-89.42 333.09,-85.22"/>
<polyline fill="none" stroke="#000000" stroke-width="2" stroke-opacity="0.200000" points="333.14,-87.32 336.14,-87.25 "/>
<ellipse fill="none" stroke="#000000" stroke-width="2" stroke-opacity="0.200000" cx="338.54" cy="-87.19" rx="2.4" ry="2.4"/>
</g>
<!-- src/agent.ts&#45;&gt;src/types.ts -->
<g id="edge6" class="edge">
<title>src/agent.ts&#45;&gt;src/types.ts</title>
<path fill="none" stroke="#000000" stroke-width="2" stroke-opacity="0.200000" d="M394.06,-83C396.32,-83 398.61,-83 400.9,-83"/>
<polygon fill="#000000" fill-opacity="0.200000" stroke="#000000" stroke-width="2" stroke-opacity="0.200000" points="400.93,-85.1 406.93,-83 400.93,-80.9 400.93,-85.1"/>
</g>
<!-- src/agent.ts&#45;&gt;src/utilities.ts -->
<g id="edge7" class="edge">
<title>src/agent.ts&#45;&gt;src/utilities.ts</title>
<path fill="none" stroke="#000000" stroke-width="2" stroke-opacity="0.200000" d="M387.5,-92C393.81,-94.91 400.91,-98.19 407.58,-101.27"/>
<polygon fill="#000000" fill-opacity="0.200000" stroke="#000000" stroke-width="2" stroke-opacity="0.200000" points="406.73,-103.19 413.06,-103.8 408.49,-99.38 406.73,-103.19"/>
</g>
<!-- src/agent_location.ts -->
<g id="node6" class="node">
<title>src/agent_location.ts</title>
<g id="a_node6"><a xlink:href="src/agent_location.ts" xlink:title="agent_location.ts">
<path fill="#ccffcc" stroke="black" d="M96,-125C96,-125 22,-125 22,-125 19,-125 16,-122 16,-119 16,-119 16,-113 16,-113 16,-110 19,-107 22,-107 22,-107 96,-107 96,-107 99,-107 102,-110 102,-113 102,-113 102,-119 102,-119 102,-122 99,-125 96,-125"/>
<text text-anchor="middle" x="59" y="-113.8" font-family="Helvetica,sans-Serif" font-size="9.00">agent_location.ts</text>
</a>
</g>
</g>
<!-- src/data.json -->
<g id="node7" class="node">
<title>src/data.json</title>
<g id="a_node7"><a xlink:href="src/data.json" xlink:title="data.json">
<path fill="#ffee44" stroke="black" d="M185.5,-136C185.5,-136 143.5,-136 143.5,-136 140.5,-136 137.5,-133 137.5,-130 137.5,-130 137.5,-124 137.5,-124 137.5,-121 140.5,-118 143.5,-118 143.5,-118 185.5,-118 185.5,-118 188.5,-118 191.5,-121 191.5,-124 191.5,-124 191.5,-130 191.5,-130 191.5,-133 188.5,-136 185.5,-136"/>
<text text-anchor="middle" x="164.5" y="-124.8" font-family="Helvetica,sans-Serif" font-size="9.00">data.json</text>
</a>
</g>
</g>
<!-- src/execution_engine.ts -->
<g id="node8" class="node">
<title>src/execution_engine.ts</title>
<g id="a_node8"><a xlink:href="src/execution_engine.ts" xlink:title="execution_engine.ts">
<path fill="#ddfeff" stroke="black" d="M208,-48C208,-48 121,-48 121,-48 118,-48 115,-45 115,-42 115,-42 115,-36 115,-36 115,-33 118,-30 121,-30 121,-30 208,-30 208,-30 211,-30 214,-33 214,-36 214,-36 214,-42 214,-42 214,-45 211,-48 208,-48"/>
<text text-anchor="middle" x="164.5" y="-36.8" font-family="Helvetica,sans-Serif" font-size="9.00">execution_engine.ts</text>
</a>
</g>
</g>
<!-- src/execution_engine.ts&#45;&gt;src/agent.ts -->
<g id="edge8" class="edge">
<title>src/execution_engine.ts&#45;&gt;src/agent.ts</title>
<path fill="none" stroke="#000000" stroke-width="2" stroke-opacity="0.200000" d="M214.23,-41.89C254.05,-44.72 306.92,-49.68 327,-57 335.41,-60.06 343.79,-65.29 350.61,-70.26"/>
<polygon fill="#000000" fill-opacity="0.200000" stroke="#000000" stroke-width="2" stroke-opacity="0.200000" points="349.46,-72.02 355.51,-73.97 351.99,-68.67 349.46,-72.02"/>
</g>
<!-- src/ui.ts -->
<g id="node9" class="node">
<title>src/ui.ts</title>
<g id="a_node9"><a xlink:href="src/ui.ts" xlink:title="ui.ts">
<path fill="#ddfeff" stroke="black" d="M298,-34C298,-34 256,-34 256,-34 253,-34 250,-31 250,-28 250,-28 250,-22 250,-22 250,-19 253,-16 256,-16 256,-16 298,-16 298,-16 301,-16 304,-19 304,-22 304,-22 304,-28 304,-28 304,-31 301,-34 298,-34"/>
<text text-anchor="middle" x="277" y="-22.8" font-family="Helvetica,sans-Serif" font-size="9.00">ui.ts</text>
</a>
</g>
</g>
<!-- src/execution_engine.ts&#45;&gt;src/ui.ts -->
<g id="edge9" class="edge">
<title>src/execution_engine.ts&#45;&gt;src/ui.ts</title>
<path fill="none" stroke="#000000" stroke-width="2" stroke-opacity="0.200000" d="M202.91,-29.98C213.5,-28.37 225.07,-26.88 235.81,-25.74"/>
<polygon fill="#000000" fill-opacity="0.200000" stroke="#000000" stroke-width="2" stroke-opacity="0.200000" points="244.01,-27.08 249.79,-24.43 243.62,-22.9 244.01,-27.08"/>
<polyline fill="none" stroke="#000000" stroke-width="2" stroke-opacity="0.200000" points="243.81,-24.99 240.83,-25.27 "/>
<ellipse fill="none" stroke="#000000" stroke-width="2" stroke-opacity="0.200000" cx="238.44" cy="-25.5" rx="2.4" ry="2.4"/>
</g>
<!-- src/ui.ts&#45;&gt;src/agent.ts -->
<g id="edge17" class="edge">
<title>src/ui.ts&#45;&gt;src/agent.ts</title>
<path fill="none" stroke="#000000" stroke-width="2" stroke-opacity="0.200000" d="M304.2,-32.2C311.89,-34.94 320.08,-38.51 327,-43 337.78,-49.99 347.85,-60.46 355.06,-68.93"/>
<polygon fill="#000000" fill-opacity="0.200000" stroke="#000000" stroke-width="2" stroke-opacity="0.200000" points="353.72,-70.61 359.15,-73.9 356.96,-67.94 353.72,-70.61"/>
</g>
<!-- src/ui.ts&#45;&gt;src/execution_engine.ts -->
<g id="edge18" class="edge">
<title>src/ui.ts&#45;&gt;src/execution_engine.ts</title>
<path fill="none" stroke="#000000" stroke-width="2" stroke-opacity="0.200000" d="M249.89,-32.2C243.23,-33.35 235.78,-34.49 228.13,-35.53"/>
<polygon fill="#000000" fill-opacity="0.200000" stroke="#000000" stroke-width="2" stroke-opacity="0.200000" points="219.98,-34.45 214.29,-37.29 220.51,-38.62 219.98,-34.45"/>
<polyline fill="none" stroke="#000000" stroke-width="2" stroke-opacity="0.200000" points="220.24,-36.53 223.22,-36.15 "/>
<ellipse fill="none" stroke="#000000" stroke-width="2" stroke-opacity="0.200000" cx="225.6" cy="-35.85" rx="2.4" ry="2.4"/>
</g>
<!-- src/main.ts -->
<g id="node10" class="node">
<title>src/main.ts</title>
<g id="a_node10"><a xlink:href="src/main.ts" xlink:title="main.ts">
<path fill="#ddfeff" stroke="black" d="M80,-84C80,-84 38,-84 38,-84 35,-84 32,-81 32,-78 32,-78 32,-72 32,-72 32,-69 35,-66 38,-66 38,-66 80,-66 80,-66 83,-66 86,-69 86,-72 86,-72 86,-78 86,-78 86,-81 83,-84 80,-84"/>
<text text-anchor="middle" x="59" y="-72.8" font-family="Helvetica,sans-Serif" font-size="9.00">main.ts</text>
</a>
</g>
</g>
<!-- src/main.ts&#45;&gt;src/action_manager.ts -->
<g id="edge12" class="edge">
<title>src/main.ts&#45;&gt;src/action_manager.ts</title>
<path fill="none" stroke="#000000" stroke-width="2" stroke-opacity="0.200000" d="M86.12,-80.55C94.85,-82.41 104.88,-84.54 114.76,-86.64"/>
<polygon fill="#000000" fill-opacity="0.200000" stroke="#000000" stroke-width="2" stroke-opacity="0.200000" points="114.57,-88.75 120.88,-87.94 115.45,-84.64 114.57,-88.75"/>
</g>
<!-- src/main.ts&#45;&gt;src/location_manager.ts -->
<g id="edge15" class="edge">
<title>src/main.ts&#45;&gt;src/location_manager.ts</title>
<path fill="none" stroke="#000000" stroke-width="2" stroke-opacity="0.200000" d="M86.05,-75.96C119.28,-77.2 177.59,-79.36 220.87,-80.96"/>
<polygon fill="#000000" fill-opacity="0.200000" stroke="#000000" stroke-width="2" stroke-opacity="0.200000" points="220.8,-83.06 226.87,-81.18 220.96,-78.86 220.8,-83.06"/>
</g>
<!-- src/main.ts&#45;&gt;src/agent.ts -->
<g id="edge13" class="edge">
<title>src/main.ts&#45;&gt;src/agent.ts</title>
<path fill="none" stroke="#000000" stroke-width="2" stroke-opacity="0.200000" d="M86.06,-70.75C134.15,-63.69 239.92,-51.83 327,-68 331.61,-68.86 336.39,-70.24 340.94,-71.82"/>
<polygon fill="#000000" fill-opacity="0.200000" stroke="#000000" stroke-width="2" stroke-opacity="0.200000" points="340.21,-73.79 346.57,-73.92 341.68,-69.86 340.21,-73.79"/>
</g>
<!-- src/main.ts&#45;&gt;src/data.json -->
<g id="edge14" class="edge">
<title>src/main.ts&#45;&gt;src/data.json</title>
<path fill="none" stroke="#000000" stroke-width="2" stroke-opacity="0.200000" d="M75.92,-84.1C83.93,-88.86 93.67,-94.95 102,-101 108.12,-105.45 108.36,-108.36 115,-112 120.05,-114.77 125.69,-117.1 131.28,-119.04"/>
<polygon fill="#000000" fill-opacity="0.200000" stroke="#000000" stroke-width="2" stroke-opacity="0.200000" points="130.94,-121.14 137.29,-120.99 132.23,-117.14 130.94,-121.14"/>
</g>
<!-- src/main.ts&#45;&gt;src/ui.ts -->
<g id="edge16" class="edge">
<title>src/main.ts&#45;&gt;src/ui.ts</title>
<path fill="none" stroke="#000000" stroke-width="2" stroke-opacity="0.200000" d="M66.51,-65.62C75.67,-53.34 93.66,-32.37 115,-24 157.13,-7.47 210.38,-12.25 243.82,-18"/>
<polygon fill="#000000" fill-opacity="0.200000" stroke="#000000" stroke-width="2" stroke-opacity="0.200000" points="243.55,-20.08 249.83,-19.08 244.3,-15.95 243.55,-20.08"/>
</g>
</g>
</svg>
