<?xml version="1.0" encoding="UTF-8" standalone="no"?><!DOCTYPE svg PUBLIC "-//W3C//DTD SVG 1.1//EN" "http://www.w3.org/Graphics/SVG/1.1/DTD/svg11.dtd"><!-- Generated by graphviz version 2.40.1 (20161225.0304)
 --><!-- Title: dependency&#45;cruiser output Pages: 1 --><svg xmlns="http://www.w3.org/2000/svg" xmlns:xlink="http://www.w3.org/1999/xlink" width="485pt" height="537pt" viewBox="0.00 0.00 485.07 537.00">
<g id="graph0" class="graph" transform="scale(1 1) rotate(0) translate(4 533)">
<title>dependency-cruiser output</title>
<polygon fill="#ffffff" stroke="transparent" points="-4,4 -4,-533 481.0728,-533 481.0728,4 -4,4"/>
<g id="clust1" class="cluster">
<title>cluster_src</title>
<path fill="#ffffff" stroke="#000000" stroke-width="2" d="M20,-8C20,-8 457.0728,-8 457.0728,-8 463.0728,-8 469.0728,-14 469.0728,-20 469.0728,-20 469.0728,-509 469.0728,-509 469.0728,-515 463.0728,-521 457.0728,-521 457.0728,-521 20,-521 20,-521 14,-521 8,-515 8,-509 8,-509 8,-20 8,-20 8,-14 14,-8 20,-8"/>
<text text-anchor="middle" x="238.5364" y="-508.9" font-family="Helvetica,sans-Serif" font-weight="bold" font-size="9.00" fill="#000000">src</text>
</g>
<!-- src/action_manager.ts -->
<g id="node1" class="node">
<title>src/action_manager.ts</title>
<g id="a_node1"><a xlink:href="src/action_manager.ts" xlink:title="action_manager.ts">
<path fill="#ddfeff" stroke="#000000" d="M231.8617,-165.3011C231.8617,-165.3011 154.222,-165.3011 154.222,-165.3011 151.1217,-165.3011 148.0213,-162.2007 148.0213,-159.1004 148.0213,-159.1004 148.0213,-152.8996 148.0213,-152.8996 148.0213,-149.7993 151.1217,-146.6989 154.222,-146.6989 154.222,-146.6989 231.8617,-146.6989 231.8617,-146.6989 234.962,-146.6989 238.0624,-149.7993 238.0624,-152.8996 238.0624,-152.8996 238.0624,-159.1004 238.0624,-159.1004 238.0624,-162.2007 234.962,-165.3011 231.8617,-165.3011"/>
<text text-anchor="middle" x="193.0419" y="-153.3" font-family="Helvetica,sans-Serif" font-size="9.00" fill="#000000">action_manager.ts</text>
</a>
</g>
</g>
<!-- src/location_manager.ts -->
<g id="node2" class="node">
<title>src/location_manager.ts</title>
<g id="a_node2"><a xlink:href="src/location_manager.ts" xlink:title="location_manager.ts">
<path fill="#ddfeff" stroke="#000000" d="M364.8825,-182.3011C364.8825,-182.3011 280.2424,-182.3011 280.2424,-182.3011 277.1421,-182.3011 274.0417,-179.2007 274.0417,-176.1004 274.0417,-176.1004 274.0417,-169.8996 274.0417,-169.8996 274.0417,-166.7993 277.1421,-163.6989 280.2424,-163.6989 280.2424,-163.6989 364.8825,-163.6989 364.8825,-163.6989 367.9828,-163.6989 371.0832,-166.7993 371.0832,-169.8996 371.0832,-169.8996 371.0832,-176.1004 371.0832,-176.1004 371.0832,-179.2007 367.9828,-182.3011 364.8825,-182.3011"/>
<text text-anchor="middle" x="322.5625" y="-170.3" font-family="Helvetica,sans-Serif" font-size="9.00" fill="#000000">location_manager.ts</text>
</a>
</g>
</g>
<!-- src/action_manager.ts&#45;&gt;src/location_manager.ts -->
<g id="edge1" class="edge">
<title>src/action_manager.ts-&gt;src/location_manager.ts</title>
<path fill="none" stroke="#000000" stroke-width="2" stroke-opacity="0.200000" d="M238.3419,-161.9458C247.8868,-163.1986 258.0535,-164.533 267.9009,-165.8255"/>
<polygon fill="#000000" fill-opacity="0.200000" stroke="#000000" stroke-width="2" stroke-opacity="0.200000" points="267.7603,-167.925 273.9825,-166.6237 268.3069,-163.7607 267.7603,-167.925"/>
</g>
<!-- src/types.ts -->
<g id="node3" class="node">
<title>src/types.ts</title>
<g id="a_node3"><a xlink:href="src/types.ts" xlink:title="types.ts">
<path fill="#ddfeff" stroke="#000000" d="M454.8721,-264.3011C454.8721,-264.3011 413.2735,-264.3011 413.2735,-264.3011 410.1732,-264.3011 407.0728,-261.2007 407.0728,-258.1004 407.0728,-258.1004 407.0728,-251.8996 407.0728,-251.8996 407.0728,-248.7993 410.1732,-245.6989 413.2735,-245.6989 413.2735,-245.6989 454.8721,-245.6989 454.8721,-245.6989 457.9724,-245.6989 461.0728,-248.7993 461.0728,-251.8996 461.0728,-251.8996 461.0728,-258.1004 461.0728,-258.1004 461.0728,-261.2007 457.9724,-264.3011 454.8721,-264.3011"/>
<text text-anchor="middle" x="434.0728" y="-252.3" font-family="Helvetica,sans-Serif" font-size="9.00" fill="#000000">types.ts</text>
</a>
</g>
</g>
<!-- src/action_manager.ts&#45;&gt;src/types.ts -->
<g id="edge2" class="edge">
<title>src/action_manager.ts-&gt;src/types.ts</title>
<path fill="none" stroke="#000000" stroke-width="2" stroke-opacity="0.200000" d="M209.3225,-146.5998C242.6111,-128.749 319.6526,-94.5834 371.0728,-128 404.1056,-149.4671 389.0733,-173.9569 407.0728,-209 412.6087,-219.7778 419.5389,-231.555 424.9921,-240.4945"/>
<polygon fill="#000000" fill-opacity="0.200000" stroke="#000000" stroke-width="2" stroke-opacity="0.200000" points="423.2376,-241.6504 428.1709,-245.6596 426.8145,-239.4491 423.2376,-241.6504"/>
</g>
<!-- src/utilities.ts -->
<g id="node4" class="node">
<title>src/utilities.ts</title>
<g id="a_node4"><a xlink:href="src/utilities.ts" xlink:title="utilities.ts">
<path fill="#ddfeff" stroke="#000000" d="M454.8721,-173.3011C454.8721,-173.3011 413.2735,-173.3011 413.2735,-173.3011 410.1732,-173.3011 407.0728,-170.2007 407.0728,-167.1004 407.0728,-167.1004 407.0728,-160.8996 407.0728,-160.8996 407.0728,-157.7993 410.1732,-154.6989 413.2735,-154.6989 413.2735,-154.6989 454.8721,-154.6989 454.8721,-154.6989 457.9724,-154.6989 461.0728,-157.7993 461.0728,-160.8996 461.0728,-160.8996 461.0728,-167.1004 461.0728,-167.1004 461.0728,-170.2007 457.9724,-173.3011 454.8721,-173.3011"/>
<text text-anchor="middle" x="434.0728" y="-161.3" font-family="Helvetica,sans-Serif" font-size="9.00" fill="#000000">utilities.ts</text>
</a>
</g>
</g>
<!-- src/action_manager.ts&#45;&gt;src/utilities.ts -->
<g id="edge3" class="edge">
<title>src/action_manager.ts-&gt;src/utilities.ts</title>
<path fill="none" stroke="#000000" stroke-width="2" stroke-opacity="0.200000" d="M198.455,-146.5963C209.7201,-128.1004 237.6904,-87.4489 274.0521,-72 313.739,-55.1384 332.9289,-51.8902 371.0728,-72 401.7765,-88.1873 420.3756,-126.8304 428.7643,-148.5327"/>
<polygon fill="#000000" fill-opacity="0.200000" stroke="#000000" stroke-width="2" stroke-opacity="0.200000" points="426.8952,-149.5322 430.9519,-154.4265 430.8327,-148.0707 426.8952,-149.5322"/>
</g>
<!-- src/world.ts -->
<g id="node5" class="node">
<title>src/world.ts</title>
<g id="a_node5"><a xlink:href="src/world.ts" xlink:title="world.ts">
<path fill="#ddfeff" stroke="#000000" d="M454.8721,-355.3011C454.8721,-355.3011 413.2735,-355.3011 413.2735,-355.3011 410.1732,-355.3011 407.0728,-352.2007 407.0728,-349.1004 407.0728,-349.1004 407.0728,-342.8996 407.0728,-342.8996 407.0728,-339.7993 410.1732,-336.6989 413.2735,-336.6989 413.2735,-336.6989 454.8721,-336.6989 454.8721,-336.6989 457.9724,-336.6989 461.0728,-339.7993 461.0728,-342.8996 461.0728,-342.8996 461.0728,-349.1004 461.0728,-349.1004 461.0728,-352.2007 457.9724,-355.3011 454.8721,-355.3011"/>
<text text-anchor="middle" x="434.0728" y="-343.3" font-family="Helvetica,sans-Serif" font-size="9.00" fill="#000000">world.ts</text>
</a>
</g>
</g>
<!-- src/action_manager.ts&#45;&gt;src/world.ts -->
<g id="edge4" class="edge">
<title>src/action_manager.ts-&gt;src/world.ts</title>
<path fill="none" stroke="#000000" stroke-width="2" stroke-opacity="0.200000" d="M205.3891,-165.4598C221.2691,-177.6239 249.7056,-199.3985 274.0521,-218 317.1453,-250.9244 328.9077,-257.895 371.0728,-292 387.6843,-305.4361 406.1936,-321.4286 418.8263,-332.5056"/>
<polygon fill="#000000" fill-opacity="0.200000" stroke="#000000" stroke-width="2" stroke-opacity="0.200000" points="417.6354,-334.2549 423.5281,-336.6395 420.4087,-331.1006 417.6354,-334.2549"/>
</g>
<!-- src/location_manager.ts&#45;&gt;src/utilities.ts -->
<g id="edge13" class="edge">
<title>src/location_manager.ts-&gt;src/utilities.ts</title>
<path fill="none" stroke="#000000" stroke-width="2" stroke-opacity="0.200000" d="M371.1481,-169.0787C381.0669,-168.2781 391.2935,-167.4527 400.544,-166.7061"/>
<polygon fill="#000000" fill-opacity="0.200000" stroke="#000000" stroke-width="2" stroke-opacity="0.200000" points="400.9649,-168.7791 406.7765,-166.2031 400.6269,-164.5927 400.9649,-168.7791"/>
</g>
<!-- src/location_manager.ts&#45;&gt;src/world.ts -->
<g id="edge14" class="edge">
<title>src/location_manager.ts-&gt;src/world.ts</title>
<path fill="none" stroke="#000000" stroke-width="2" stroke-opacity="0.200000" d="M330.5734,-182.5008C340.5796,-194.5641 357.9759,-216.1955 371.0728,-236 389.0748,-263.2216 390.812,-271.7038 407.0728,-300 413.1098,-310.5053 420.0289,-322.2885 425.3514,-331.2991"/>
<polygon fill="#000000" fill-opacity="0.200000" stroke="#000000" stroke-width="2" stroke-opacity="0.200000" points="423.5745,-332.4201 428.4369,-336.5149 427.1894,-330.2816 423.5745,-332.4201"/>
</g>
<!-- src/agent.ts -->
<g id="node6" class="node">
<title>src/agent.ts</title>
<g id="a_node6"><a xlink:href="src/agent.ts" xlink:title="agent.ts">
<path fill="#ddfeff" stroke="#000000" d="M343.3617,-346.3011C343.3617,-346.3011 301.7632,-346.3011 301.7632,-346.3011 298.6628,-346.3011 295.5625,-343.2007 295.5625,-340.1004 295.5625,-340.1004 295.5625,-333.8996 295.5625,-333.8996 295.5625,-330.7993 298.6628,-327.6989 301.7632,-327.6989 301.7632,-327.6989 343.3617,-327.6989 343.3617,-327.6989 346.4621,-327.6989 349.5625,-330.7993 349.5625,-333.8996 349.5625,-333.8996 349.5625,-340.1004 349.5625,-340.1004 349.5625,-343.2007 346.4621,-346.3011 343.3617,-346.3011"/>
<text text-anchor="middle" x="322.5625" y="-334.3" font-family="Helvetica,sans-Serif" font-size="9.00" fill="#000000">agent.ts</text>
</a>
</g>
</g>
<!-- src/agent.ts&#45;&gt;src/types.ts -->
<g id="edge5" class="edge">
<title>src/agent.ts-&gt;src/types.ts</title>
<path fill="none" stroke="#000000" stroke-width="2" stroke-opacity="0.200000" d="M335.3541,-327.5936C355.2453,-312.9664 393.6478,-284.7269 416.2456,-268.1093"/>
<polygon fill="#000000" fill-opacity="0.200000" stroke="#000000" stroke-width="2" stroke-opacity="0.200000" points="417.4972,-269.7957 421.0868,-264.5493 415.009,-266.4121 417.4972,-269.7957"/>
</g>
<!-- src/agent.ts&#45;&gt;src/utilities.ts -->
<g id="edge6" class="edge">
<title>src/agent.ts-&gt;src/utilities.ts</title>
<path fill="none" stroke="#000000" stroke-width="2" stroke-opacity="0.200000" d="M328.5577,-327.6988C346.9364,-299.1857 402.5832,-212.8537 424.783,-178.4125"/>
<polygon fill="#000000" fill-opacity="0.200000" stroke="#000000" stroke-width="2" stroke-opacity="0.200000" points="426.5623,-179.5281 428.0479,-173.3472 423.0321,-177.2526 426.5623,-179.5281"/>
</g>
<!-- src/agent.ts&#45;&gt;src/world.ts -->
<g id="edge7" class="edge">
<title>src/agent.ts-&gt;src/world.ts</title>
<path fill="none" stroke="#000000" stroke-width="2" stroke-opacity="0.200000" d="M349.841,-339.2016C365.0959,-340.4329 384.2387,-341.9779 400.4187,-343.2838"/>
<polygon fill="#000000" fill-opacity="0.200000" stroke="#000000" stroke-width="2" stroke-opacity="0.200000" points="400.5399,-345.4003 406.6894,-343.7899 400.8779,-341.2139 400.5399,-345.4003"/>
</g>
<!-- src/data.json -->
<g id="node7" class="node">
<title>src/data.json</title>
<g id="a_node7"><a xlink:href="src/data.json" xlink:title="data.json">
<path fill="#ffee44" stroke="#000000" d="M213.8411,-329.3011C213.8411,-329.3011 172.2426,-329.3011 172.2426,-329.3011 169.1422,-329.3011 166.0419,-326.2007 166.0419,-323.1004 166.0419,-323.1004 166.0419,-316.8996 166.0419,-316.8996 166.0419,-313.7993 169.1422,-310.6989 172.2426,-310.6989 172.2426,-310.6989 213.8411,-310.6989 213.8411,-310.6989 216.9415,-310.6989 220.0419,-313.7993 220.0419,-316.8996 220.0419,-316.8996 220.0419,-323.1004 220.0419,-323.1004 220.0419,-326.2007 216.9415,-329.3011 213.8411,-329.3011"/>
<text text-anchor="middle" x="193.0419" y="-317.3" font-family="Helvetica,sans-Serif" font-size="9.00" fill="#000000">data.json</text>
</a>
</g>
</g>
<!-- src/execution_engine.ts -->
<g id="node8" class="node">
<title>src/execution_engine.ts</title>
<g id="a_node8"><a xlink:href="src/execution_engine.ts" xlink:title="execution_engine.ts">
<path fill="#ddfeff" stroke="#000000" d="M105.8467,-374.3011C105.8467,-374.3011 22.1849,-374.3011 22.1849,-374.3011 19.0845,-374.3011 15.9842,-371.2007 15.9842,-368.1004 15.9842,-368.1004 15.9842,-361.8996 15.9842,-361.8996 15.9842,-358.7993 19.0845,-355.6989 22.1849,-355.6989 22.1849,-355.6989 105.8467,-355.6989 105.8467,-355.6989 108.9471,-355.6989 112.0474,-358.7993 112.0474,-361.8996 112.0474,-361.8996 112.0474,-368.1004 112.0474,-368.1004 112.0474,-371.2007 108.9471,-374.3011 105.8467,-374.3011"/>
<text text-anchor="middle" x="64.0158" y="-362.3" font-family="Helvetica,sans-Serif" font-size="9.00" fill="#000000">execution_engine.ts</text>
</a>
</g>
</g>
<!-- src/execution_engine.ts&#45;&gt;src/action_manager.ts -->
<g id="edge8" class="edge">
<title>src/execution_engine.ts-&gt;src/action_manager.ts</title>
<path fill="none" stroke="#000000" stroke-width="2" stroke-opacity="0.200000" d="M69.0142,-355.5874C81.5763,-332.0994 115.7744,-269.1859 148.0316,-219 158.9701,-201.9818 172.6036,-183.1995 181.9828,-170.6091"/>
<polygon fill="#000000" fill-opacity="0.200000" stroke="#000000" stroke-width="2" stroke-opacity="0.200000" points="183.8066,-171.677 185.7217,-165.6154 180.4445,-169.1597 183.8066,-171.677"/>
</g>
<!-- src/execution_engine.ts&#45;&gt;src/world.ts -->
<g id="edge12" class="edge">
<title>src/execution_engine.ts-&gt;src/world.ts</title>
<path fill="none" stroke="#000000" stroke-width="2" stroke-opacity="0.200000" d="M69.1632,-374.5658C80.393,-394.2816 109.2275,-439.0125 148.0316,-456 184.6825,-472.0449 198.574,-462.4967 238.0521,-456 299.6354,-445.8655 318.3144,-444.3431 371.0728,-411 392.6065,-397.3908 412.1285,-374.9562 423.5531,-360.3285"/>
<polygon fill="#000000" fill-opacity="0.200000" stroke="#000000" stroke-width="2" stroke-opacity="0.200000" points="425.405,-361.3642 427.3846,-355.3233 422.0699,-358.8112 425.405,-361.3642"/>
</g>
<!-- src/execution_engine.ts&#45;&gt;src/agent.ts -->
<g id="edge9" class="edge">
<title>src/execution_engine.ts-&gt;src/agent.ts</title>
<path fill="none" stroke="#000000" stroke-width="2" stroke-opacity="0.200000" d="M69.1924,-355.5362C80.4775,-336.0309 109.4107,-291.7806 148.0316,-275 184.7266,-259.0562 200.0299,-262.5485 238.0521,-275 266.8885,-284.4434 294.0147,-307.8898 309.424,-323.0905"/>
<polygon fill="#000000" fill-opacity="0.200000" stroke="#000000" stroke-width="2" stroke-opacity="0.200000" points="308.1017,-324.7393 313.8189,-327.5186 311.0827,-321.7806 308.1017,-324.7393"/>
</g>
<!-- src/execution_engine.ts&#45;&gt;src/data.json -->
<g id="edge10" class="edge">
<title>src/execution_engine.ts-&gt;src/data.json</title>
<path fill="none" stroke="#000000" stroke-width="2" stroke-opacity="0.200000" d="M90.7501,-355.676C110.9911,-348.6166 138.893,-338.8853 160.4435,-331.3692"/>
<polygon fill="#000000" fill-opacity="0.200000" stroke="#000000" stroke-width="2" stroke-opacity="0.200000" points="161.3681,-333.2709 166.3418,-329.3121 159.9849,-329.3052 161.3681,-333.2709"/>
</g>
<!-- src/ui.ts -->
<g id="node9" class="node">
<title>src/ui.ts</title>
<g id="a_node9"><a xlink:href="src/ui.ts" xlink:title="ui.ts">
<path fill="#ddfeff" stroke="#000000" d="M213.8411,-420.3011C213.8411,-420.3011 172.2426,-420.3011 172.2426,-420.3011 169.1422,-420.3011 166.0419,-417.2007 166.0419,-414.1004 166.0419,-414.1004 166.0419,-407.8996 166.0419,-407.8996 166.0419,-404.7993 169.1422,-401.6989 172.2426,-401.6989 172.2426,-401.6989 213.8411,-401.6989 213.8411,-401.6989 216.9415,-401.6989 220.0419,-404.7993 220.0419,-407.8996 220.0419,-407.8996 220.0419,-414.1004 220.0419,-414.1004 220.0419,-417.2007 216.9415,-420.3011 213.8411,-420.3011"/>
<text text-anchor="middle" x="193.0419" y="-408.3" font-family="Helvetica,sans-Serif" font-size="9.00" fill="#000000">ui.ts</text>
</a>
</g>
</g>
<!-- src/execution_engine.ts&#45;&gt;src/ui.ts -->
<g id="edge11" class="edge">
<title>src/execution_engine.ts-&gt;src/ui.ts</title>
<path fill="none" stroke="#000000" stroke-width="2" stroke-opacity="0.200000" d="M68.9162,-355.574C87.5245,-342.9964 154.1271,-365.02 181.336,-390.4895"/>
<polygon fill="#000000" fill-opacity="0.200000" stroke="#000000" stroke-width="2" stroke-opacity="0.200000" points="184.9118,-398.2008 190.3302,-401.5251 188.1674,-395.5474 184.9118,-398.2008"/>
<polyline fill="none" stroke="#000000" stroke-width="2" stroke-opacity="0.200000" points="186.5396,-396.8741 184.6443,-394.5486 "/>
<ellipse fill="none" stroke="#000000" stroke-width="2" stroke-opacity="0.200000" cx="183.128" cy="-392.6883" rx="2.4" ry="2.4"/>
</g>
<!-- src/ui.ts&#45;&gt;src/world.ts -->
<g id="edge17" class="edge">
<title>src/ui.ts-&gt;src/world.ts</title>
<path fill="none" stroke="#000000" stroke-width="2" stroke-opacity="0.200000" d="M220.3283,-409.578C255.9218,-407.0485 319.7087,-400.1873 371.0728,-382 386.9313,-376.3847 403.3887,-366.8311 415.5044,-358.9763"/>
<polygon fill="#000000" fill-opacity="0.200000" stroke="#000000" stroke-width="2" stroke-opacity="0.200000" points="416.9027,-360.5693 420.7479,-355.5072 414.5852,-357.0665 416.9027,-360.5693"/>
</g>
<!-- src/ui.ts&#45;&gt;src/agent.ts -->
<g id="edge15" class="edge">
<title>src/ui.ts-&gt;src/agent.ts</title>
<path fill="none" stroke="#000000" stroke-width="2" stroke-opacity="0.200000" d="M209.4457,-401.6278C232.5781,-388.4115 274.835,-364.2685 300.6389,-349.5257"/>
<polygon fill="#000000" fill-opacity="0.200000" stroke="#000000" stroke-width="2" stroke-opacity="0.200000" points="301.7148,-351.3297 305.8827,-346.5298 299.6312,-347.6829 301.7148,-351.3297"/>
</g>
<!-- src/ui.ts&#45;&gt;src/execution_engine.ts -->
<g id="edge16" class="edge">
<title>src/ui.ts-&gt;src/execution_engine.ts</title>
<path fill="none" stroke="#000000" stroke-width="2" stroke-opacity="0.200000" d="M188.09,-420.4606C169.4021,-432.9689 102.8443,-410.9363 75.6842,-385.4754"/>
<polygon fill="#000000" fill-opacity="0.200000" stroke="#000000" stroke-width="2" stroke-opacity="0.200000" points="72.1261,-377.7737 66.7107,-374.4444 68.868,-380.4241 72.1261,-377.7737"/>
<polyline fill="none" stroke="#000000" stroke-width="2" stroke-opacity="0.200000" points="70.497,-379.0989 72.3902,-381.4261 "/>
<ellipse fill="none" stroke="#000000" stroke-width="2" stroke-opacity="0.200000" cx="73.9047" cy="-383.2879" rx="2.4" ry="2.4"/>
</g>
</g>
</svg>